# Blender v2.79 (sub 0) OBJ File: 'MusicRoom.blend'
# www.blender.org
mtllib MusicRoom.mtl
o Cube_CubeMesh
v 13.000000 -4.000000 -11.000000
v 13.000000 -4.000000 11.000000
v -12.000000 -4.000000 11.000000
v -12.000000 -4.000000 -11.000000
v 13.000000 -3.000000 -10.999999
v 13.000000 -3.000000 11.000001
v -12.000000 -3.000000 11.000000
v -12.000000 -3.000000 -11.000000
v 13.000000 -4.000000 11.000000
v 13.000000 4.000000 11.000000
v 13.000000 -4.000000 -11.000000
v 13.000000 4.000000 -11.000000
v 14.000000 -4.000000 11.000000
v 14.000000 4.000000 11.000000
v 14.000000 -4.000000 -11.000000
v 14.000000 4.000000 -11.000000
v -12.000000 -4.000000 12.000000
v -12.000000 4.000000 12.000000
v -12.000000 -4.000000 11.000000
v -12.000000 4.000000 11.000000
v 14.000000 -4.000000 12.000000
v 14.000000 4.000000 12.000000
v 14.000000 -4.000000 11.000000
v 14.000000 4.000000 11.000000
v -13.000000 -4.000000 11.000000
v -13.000000 4.000000 11.000000
v -13.000000 -4.000000 -11.000000
v -13.000000 4.000000 -11.000000
v -12.000000 -4.000000 11.000000
v -12.000000 4.000000 11.000000
v -12.000000 -4.000000 -11.000000
v -12.000000 4.000000 -11.000000
v -12.000000 -4.000000 -11.000000
v -12.000000 4.000000 -11.000000
v -12.000000 -4.000000 -12.000000
v -12.000000 4.000000 -12.000000
v 14.000000 -4.000000 -11.000000
v 14.000000 4.000000 -11.000000
v 14.000000 -4.000000 -12.000000
v 14.000000 4.000000 -12.000000
v 13.000000 4.000000 -11.000000
v 13.000000 4.000000 11.000000
v -12.000000 4.000000 11.000000
v -12.000000 4.000000 -11.000000
v 13.000000 5.000000 -10.999999
v 13.000000 5.000000 11.000001
v -12.000000 5.000000 11.000000
v -12.000000 5.000000 -11.000000
v 7.000000 -3.000000 12.000000
v 7.000000 2.000000 12.000000
v 7.000000 -3.000000 10.970000
v 7.000000 2.000000 10.970000
v 10.000000 -3.000000 12.000000
v 10.000000 2.000000 12.000000
v 10.000000 -3.000000 10.970000
v 10.000000 2.000000 10.970000
v -5.618999 4.021004 0.929000
v -5.618999 3.899001 0.929000
v -5.618999 4.021004 2.071000
v -5.618999 3.899001 2.071000
v -7.170999 4.021004 0.929000
v -7.170999 3.899001 0.929000
v -7.170999 4.021004 2.071000
v -7.170999 3.899001 2.071000
v -7.170999 3.899001 -5.119000
v -7.170999 4.021004 -5.119000
v -7.170999 3.899001 -6.261000
v -7.170999 4.021004 -6.261000
v -5.618999 3.899001 -5.119000
v -5.618999 4.021004 -5.119000
v -5.618999 3.899001 -6.261000
v -5.618999 4.021004 -6.261000
v -5.618999 4.021004 5.539001
v -5.618999 3.899001 5.539001
v -5.618999 4.021004 6.681000
v -5.618999 3.899001 6.681000
v -7.170999 4.021004 5.539001
v -7.170999 3.899001 5.539001
v -7.170999 4.021004 6.681000
v -7.170999 3.899001 6.681000
v 0.041001 4.021004 0.929000
v 0.041001 3.899001 0.929000
v 0.041001 4.021004 2.071000
v 0.041001 3.899001 2.071000
v -1.510999 4.021004 0.929000
v -1.510999 3.899001 0.929000
v -1.510999 4.021004 2.071000
v -1.510999 3.899001 2.071000
v -1.510999 3.899001 -5.119000
v -1.510999 4.021004 -5.119000
v -1.510999 3.899001 -6.261000
v -1.510999 4.021004 -6.261000
v 0.041001 3.899001 -5.119000
v 0.041001 4.021004 -5.119000
v 0.041001 3.899001 -6.261000
v 0.041001 4.021004 -6.261000
v 0.041001 4.021004 5.539001
v 0.041001 3.899001 5.539001
v 0.041001 4.021004 6.681000
v 0.041001 3.899001 6.681000
v -1.510999 4.021004 5.539001
v -1.510999 3.899001 5.539001
v -1.510999 4.021004 6.681000
v -1.510999 3.899001 6.681000
v 7.311001 4.021004 0.929000
v 7.311001 3.899001 0.929000
v 7.311001 4.021004 2.071000
v 7.311001 3.899001 2.071000
v 5.759001 4.021004 0.929000
v 5.759001 3.899001 0.929000
v 5.759001 4.021004 2.071000
v 5.759001 3.899001 2.071000
v 5.759001 3.899001 -5.119000
v 5.759001 4.021004 -5.119000
v 5.759001 3.899001 -6.261000
v 5.759001 4.021004 -6.261000
v 7.311001 3.899001 -5.119000
v 7.311001 4.021004 -5.119000
v 7.311001 3.899001 -6.261000
v 7.311001 4.021004 -6.261000
v 7.311001 4.021004 5.539001
v 7.311001 3.899001 5.539001
v 7.311001 4.021004 6.681000
v 7.311001 3.899001 6.681000
v 5.759001 4.021004 5.539001
v 5.759001 3.899001 5.539001
v 5.759001 4.021004 6.681000
v 5.759001 3.899001 6.681000
vt 0.000083 0.000083
vt 0.999917 0.000083
vt 0.999917 0.996264
vt 0.000083 0.996264
vt 0.432309 0.983871
vt 0.430746 0.981937
vt 0.445499 0.981937
vt 0.443196 0.983526
vt 0.431804 0.991953
vt 0.429501 0.993542
vt 0.442691 0.991609
vt 0.444254 0.993542
vt 0.431804 0.991953
vt 0.429501 0.993542
vt 0.430746 0.981937
vt 0.432309 0.983871
vt 0.445499 0.981937
vt 0.443196 0.983526
vt 0.444254 0.993542
vt 0.442691 0.991609
vt 0.000083 0.000083
vt 0.999917 0.000083
vt 0.999917 0.996264
vt 0.000083 0.996264
vt 0.000083 0.000083
vt 0.999917 0.000083
vt 0.999917 0.996264
vt 0.000083 0.996264
vt 0.432309 0.983871
vt 0.430746 0.981937
vt 0.445499 0.981937
vt 0.443196 0.983526
vt 0.431804 0.991953
vt 0.429501 0.993542
vt 0.442691 0.991609
vt 0.444254 0.993542
vt 0.000083 0.000083
vt 0.999917 0.000083
vt 0.999917 0.996264
vt 0.000083 0.996264
vt 0.432309 0.983871
vt 0.430746 0.981937
vt 0.445499 0.981937
vt 0.443196 0.983526
vt 0.431804 0.991953
vt 0.429501 0.993542
vt 0.442691 0.991609
vt 0.444254 0.993542
vt 0.431804 0.991953
vt 0.429501 0.993542
vt 0.430746 0.981937
vt 0.432309 0.983871
vt 0.445499 0.981937
vt 0.443196 0.983526
vt 0.444254 0.993542
vt 0.442691 0.991609
vt 0.000083 0.000083
vt 0.999917 0.000083
vt 0.999917 0.996264
vt 0.000083 0.996264
vt 0.000083 0.000083
vt 0.999917 0.000083
vt 0.999917 0.996264
vt 0.000083 0.996264
vt 0.432309 0.983871
vt 0.430746 0.981937
vt 0.445499 0.981937
vt 0.443196 0.983526
vt 0.431804 0.991953
vt 0.429501 0.993542
vt 0.442691 0.991609
vt 0.444254 0.993542
vt 0.000083 0.000083
vt 0.999917 0.000083
vt 0.999917 0.996264
vt 0.000083 0.996264
vt 0.432309 0.983871
vt 0.430746 0.981937
vt 0.445499 0.981937
vt 0.443196 0.983526
vt 0.431804 0.991953
vt 0.429501 0.993542
vt 0.442691 0.991609
vt 0.444254 0.993542
vt 0.431804 0.991953
vt 0.429501 0.993542
vt 0.430746 0.981937
vt 0.432309 0.983871
vt 0.445499 0.981937
vt 0.443196 0.983526
vt 0.444254 0.993542
vt 0.442691 0.991609
vt 0.000083 0.000083
vt 0.999917 0.000083
vt 0.999917 0.996264
vt 0.000083 0.996264
vt 0.000083 0.000083
vt 0.999917 0.000083
vt 0.999917 0.996264
vt 0.000083 0.996264
vt 0.432309 0.983871
vt 0.430746 0.981937
vt 0.445499 0.981937
vt 0.443196 0.983526
vt 0.431804 0.991953
vt 0.429501 0.993542
vt 0.442691 0.991609
vt 0.444254 0.993542
vt 0.095078 1.091941
vt 0.095078 4.291941
vt 8.895079 4.291941
vt 8.895079 1.091941
vt 0.495078 1.091941
vt 0.495078 4.291941
vt 10.895079 4.291941
vt 10.895079 1.091941
vt 0.095078 1.091941
vt 0.095078 4.291941
vt -8.704922 4.291941
vt -8.704922 1.091941
vt 0.495078 1.091941
vt 0.495078 4.291941
vt -9.904922 4.291941
vt -9.904922 1.091941
vt 0.999908 0.000091
vt 1.015534 0.997335
vt 0.015716 0.997335
vt 0.000091 0.000091
vt 0.000000 0.000000
vt 0.000000 0.000000
vt 0.000000 0.000000
vt 0.000000 0.000000
vt 0.000000 0.000000
vt 0.000000 0.000000
vt 0.000000 0.000000
vt 0.000000 0.000000
vt 0.000000 0.000000
vt 0.000000 0.000000
vt 0.000000 0.000000
vt 0.000000 0.000000
vt 0.000000 0.000000
vt 0.000000 0.000000
vt 0.000000 0.000000
vt 0.000000 0.000000
vt 0.000000 0.000000
vt 0.000000 0.000000
vt 0.000000 0.000000
vt 0.000000 0.000000
vt 0.000000 0.000000
vt 0.000000 0.000000
vt 0.000000 0.000000
vt 0.000000 0.000000
vt 0.000000 0.000000
vt 0.000000 0.000000
vt 0.000000 0.000000
vt 0.000000 0.000000
vt 0.000000 0.000000
vt 0.000000 0.000000
vt 0.000000 0.000000
vt 0.000000 0.000000
vt 0.000000 0.000000
vt 0.000000 0.000000
vt 0.000000 0.000000
vt 0.000000 0.000000
vt 0.000000 0.000000
vt 0.000000 0.000000
vt 0.000000 0.000000
vt 0.000000 0.000000
vt 5.609042 4.935967
vt -4.609041 4.935969
vt -4.609042 -4.055945
vt 5.609041 -4.055946
vt 0.000000 0.000000
vt 0.000000 0.000000
vt 0.000000 0.000000
vt 0.000000 0.000000
vt 0.000000 0.000000
vt 0.000000 0.000000
vt 0.000000 0.000000
vt 0.000000 0.000000
vt 0.000000 0.000000
vt 0.000000 0.000000
vt 0.000000 0.000000
vt 0.000000 0.000000
vt 0.000000 0.000000
vt 0.000000 0.000000
vt 0.000000 0.000000
vt 0.000000 0.000000
vt 0.000000 0.000000
vt 0.000000 0.000000
vt 0.000000 0.000000
vt 0.000000 0.000000
vt 0.000000 0.000000
vt 0.000000 0.000000
vt 0.000000 0.000000
vt 0.000000 0.000000
vt 0.000000 0.000000
vt 0.000000 0.000000
vt 0.000000 0.000000
vt 0.000000 0.000000
vt 0.000000 0.000000
vt 0.000000 0.000000
vt 0.000000 0.000000
vt 0.000000 0.000000
vt 0.000000 0.000000
vt 0.000000 0.000000
vt 0.000000 0.000000
vt 0.000000 0.000000
vt 0.000000 0.000000
vt 0.000000 0.000000
vt 0.000000 0.000000
vt 0.000000 0.000000
vt 0.000000 0.000000
vt 0.000000 0.000000
vt 0.000000 0.000000
vt 0.000000 0.000000
vt 0.000000 0.000000
vt 0.000000 0.000000
vt 0.000000 0.000000
vt 0.000000 0.000000
vt 0.000000 0.000000
vt 0.000000 0.000000
vt 0.000000 0.000000
vt 0.000000 0.000000
vt 3.965386 -5.979023
vt 3.965386 6.979023
vt -3.397140 6.979023
vt -3.397139 -5.979022
vt 5.609042 4.935967
vt -4.609041 4.935969
vt -4.609042 -4.055945
vt 5.609041 -4.055946
vn 0.0000 -1.0000 0.0000
vn 0.0000 0.0000 -1.0000
vn -1.0000 0.0000 0.0000
vn 0.0000 0.0000 1.0000
vn 1.0000 0.0000 0.0000
vn 0.0000 1.0000 0.0000
usemtl Material
s off
f 62/1/1 58/2/1 60/3/1 64/4/1
f 62/5/2 61/6/2 57/7/2 58/8/2
f 64/9/3 63/10/3 61/6/3 62/5/3
f 60/11/4 59/12/4 63/10/4 64/9/4
f 58/8/5 57/7/5 59/12/5 60/11/5
f 65/13/3 66/14/3 68/15/3 67/16/3
f 67/16/2 68/15/2 72/17/2 71/18/2
f 71/18/5 72/17/5 70/19/5 69/20/5
f 69/20/4 70/19/4 66/14/4 65/13/4
f 67/21/1 71/22/1 69/23/1 65/24/1
f 78/25/1 74/26/1 76/27/1 80/28/1
f 78/29/2 77/30/2 73/31/2 74/32/2
f 80/33/3 79/34/3 77/30/3 78/29/3
f 76/35/4 75/36/4 79/34/4 80/33/4
f 74/32/5 73/31/5 75/36/5 76/35/5
f 86/37/1 82/38/1 84/39/1 88/40/1
f 86/41/2 85/42/2 81/43/2 82/44/2
f 88/45/3 87/46/3 85/42/3 86/41/3
f 84/47/4 83/48/4 87/46/4 88/45/4
f 82/44/5 81/43/5 83/48/5 84/47/5
f 89/49/3 90/50/3 92/51/3 91/52/3
f 91/52/2 92/51/2 96/53/2 95/54/2
f 95/54/5 96/53/5 94/55/5 93/56/5
f 93/56/4 94/55/4 90/50/4 89/49/4
f 91/57/1 95/58/1 93/59/1 89/60/1
f 102/61/1 98/62/1 100/63/1 104/64/1
f 102/65/2 101/66/2 97/67/2 98/68/2
f 104/69/3 103/70/3 101/66/3 102/65/3
f 100/71/4 99/72/4 103/70/4 104/69/4
f 98/68/5 97/67/5 99/72/5 100/71/5
f 110/73/1 106/74/1 108/75/1 112/76/1
f 110/77/2 109/78/2 105/79/2 106/80/2
f 112/81/3 111/82/3 109/78/3 110/77/3
f 108/83/4 107/84/4 111/82/4 112/81/4
f 106/80/5 105/79/5 107/84/5 108/83/5
f 113/85/3 114/86/3 116/87/3 115/88/3
f 115/88/2 116/87/2 120/89/2 119/90/2
f 119/90/5 120/89/5 118/91/5 117/92/5
f 117/92/4 118/91/4 114/86/4 113/85/4
f 115/93/1 119/94/1 117/95/1 113/96/1
f 126/97/1 122/98/1 124/99/1 128/100/1
f 126/101/2 125/102/2 121/103/2 122/104/2
f 128/105/3 127/106/3 125/102/3 126/101/3
f 124/107/4 123/108/4 127/106/4 128/105/4
f 122/104/5 121/103/5 123/108/5 124/107/5
usemtl Material_insulation.png
f 9/109/3 10/110/3 12/111/3 11/112/3
f 19/113/2 20/114/2 24/115/2 23/116/2
f 31/117/5 32/118/5 30/119/5 29/120/5
f 37/121/4 38/122/4 34/123/4 33/124/4
usemtl Material_door.png
f 51/125/2 52/126/2 56/127/2 55/128/2
usemtl Material_NONE
f 1/129/1 2/130/1 3/131/1 4/132/1
f 1/129/5 5/133/5 6/134/5 2/130/5
f 2/130/4 6/134/4 7/135/4 3/131/4
f 3/131/3 7/135/3 8/136/3 4/132/3
f 5/133/2 1/129/2 4/132/2 8/136/2
f 11/137/2 12/138/2 16/139/2 15/140/2
f 15/140/5 16/139/5 14/141/5 13/142/5
f 13/142/4 14/141/4 10/143/4 9/144/4
f 11/137/1 15/140/1 13/142/1 9/144/1
f 16/139/6 12/138/6 10/143/6 14/141/6
f 17/145/3 18/146/3 20/147/3 19/148/3
f 23/149/5 24/150/5 22/151/5 21/152/5
f 21/152/4 22/151/4 18/146/4 17/145/4
f 19/148/1 23/149/1 21/152/1 17/145/1
f 24/150/6 20/147/6 18/146/6 22/151/6
f 25/153/3 26/154/3 28/155/3 27/156/3
f 27/156/2 28/155/2 32/157/2 31/158/2
f 29/159/4 30/160/4 26/154/4 25/153/4
f 27/156/1 31/158/1 29/159/1 25/153/1
f 32/157/6 28/155/6 26/154/6 30/160/6
f 33/161/3 34/162/3 36/163/3 35/164/3
f 35/164/2 36/163/2 40/165/2 39/166/2
f 39/166/5 40/165/5 38/167/5 37/168/5
f 35/164/1 39/166/1 37/168/1 33/161/1
f 40/165/6 36/163/6 34/162/6 38/167/6
f 45/169/6 48/170/6 47/171/6 46/172/6
f 41/173/5 45/174/5 46/175/5 42/176/5
f 42/176/4 46/175/4 47/177/4 43/178/4
f 43/178/3 47/177/3 48/179/3 44/180/3
f 45/174/2 41/173/2 44/180/2 48/179/2
f 49/181/3 50/182/3 52/183/3 51/184/3
f 55/185/5 56/186/5 54/187/5 53/188/5
f 53/188/4 54/187/4 50/182/4 49/181/4
f 51/184/1 55/185/1 53/188/1 49/181/1
f 56/186/6 52/183/6 50/182/6 54/187/6
f 57/189/6 61/190/6 63/191/6 59/192/6
f 72/193/6 68/194/6 66/195/6 70/196/6
f 73/197/6 77/198/6 79/199/6 75/200/6
f 81/201/6 85/202/6 87/203/6 83/204/6
f 96/205/6 92/206/6 90/207/6 94/208/6
f 97/209/6 101/210/6 103/211/6 99/212/6
f 105/213/6 109/214/6 111/215/6 107/216/6
f 120/217/6 116/218/6 114/219/6 118/220/6
f 121/221/6 125/222/6 127/223/6 123/224/6
usemtl Material_ceiling_blue.png
f 41/225/1 42/226/1 43/227/1 44/228/1
usemtl Material_wood1.png
f 5/229/6 8/230/6 7/231/6 6/232/6
