# Blender v2.79 (sub 0) OBJ File: 'MusicRoom.blend'
# www.blender.org
mtllib MusicRoom_lightmap.mtl
o Cube_CubeMesh
v 13.000000 -3.000000 -10.999999
v -12.000000 -3.000000 -11.000000
v -12.000000 -3.000000 11.000000
v 13.000000 -3.000000 11.000001
v -7.170999 3.899001 0.929000
v -5.618999 3.899001 0.929000
v -5.618999 3.899001 2.071000
v -7.170999 3.899001 2.071000
v -7.170999 4.021004 0.929000
v -5.618999 4.021004 0.929000
v -7.170999 4.021004 2.071000
v -5.618999 4.021004 2.071000
v -7.170999 3.899001 -5.119000
v -7.170999 4.021004 -5.119000
v -7.170999 4.021005 -6.261000
v -7.170999 3.899001 -6.261000
v -5.618999 4.021005 -6.261000
v -5.618999 3.899001 -6.261000
v -5.618999 4.021004 -5.119000
v -5.618999 3.899001 -5.119000
v -7.170999 3.899001 5.539001
v -5.618999 3.899001 5.539001
v -5.618999 3.899001 6.681000
v -7.170999 3.899001 6.681000
v -7.170999 4.021004 5.539001
v -5.618999 4.021004 5.539001
v -7.170999 4.021004 6.681000
v -5.618999 4.021004 6.681000
v -1.510999 3.899001 0.929000
v 0.041001 3.899001 0.929000
v 0.041001 3.899001 2.071000
v -1.510999 3.899001 2.071000
v -1.510999 4.021004 0.929000
v 0.041001 4.021004 0.929000
v -1.510999 4.021004 2.071000
v 0.041001 4.021004 2.071000
v -1.510999 3.899001 -5.119000
v -1.510999 4.021004 -5.119000
v -1.510999 4.021005 -6.261000
v -1.510999 3.899001 -6.261000
v 0.041001 4.021005 -6.261000
v 0.041001 3.899001 -6.261000
v 0.041001 4.021004 -5.119000
v 0.041001 3.899001 -5.119000
v -1.510999 3.899001 5.539001
v 0.041001 3.899001 5.539001
v 0.041001 3.899001 6.681000
v -1.510999 3.899001 6.681000
v -1.510999 4.021004 5.539001
v 0.041001 4.021004 5.539001
v -1.510999 4.021004 6.681000
v 0.041001 4.021004 6.681000
v 5.759001 3.899001 0.929000
v 7.311001 3.899001 0.929000
v 7.311001 3.899001 2.071000
v 5.759001 3.899001 2.071000
v 5.759001 4.021004 0.929000
v 7.311001 4.021004 0.929000
v 5.759001 4.021004 2.071000
v 7.311001 4.021004 2.071000
v 5.759001 3.899001 -5.119000
v 5.759001 4.021004 -5.119000
v 5.759001 4.021005 -6.261000
v 5.759001 3.899001 -6.261000
v 7.311001 4.021005 -6.261000
v 7.311001 3.899001 -6.261000
v 7.311001 4.021004 -5.119000
v 7.311001 3.899001 -5.119000
v 5.759001 3.899001 5.539001
v 7.311001 3.899001 5.539001
v 7.311001 3.899001 6.681000
v 5.759001 3.899001 6.681000
v 5.759001 4.021004 5.539001
v 7.311001 4.021004 5.539001
v 5.759001 4.021004 6.681000
v 7.311001 4.021004 6.681000
v 7.000000 -3.000000 10.970000
v 7.000000 2.000000 10.970000
v 10.000000 2.000000 10.970000
v 10.000000 -3.000000 10.970000
v 13.000000 -4.000000 11.000000
v 13.000000 4.000000 11.000000
v 13.000000 4.000000 -11.000000
v 13.000000 -4.000000 -11.000000
v -12.000000 -4.000000 11.000000
v -12.000000 4.000000 11.000000
v 14.000000 4.000000 11.000000
v 14.000000 -4.000000 11.000000
v -12.000000 -4.000000 -11.000000
v -12.000000 4.000000 -11.000000
v -12.000000 4.000000 11.000000
v -12.000000 -4.000000 11.000000
v 14.000000 -4.000000 -11.000000
v 14.000000 4.000000 -11.000000
v -12.000000 4.000000 -11.000000
v -12.000000 -4.000000 -11.000000
v 13.000000 4.000000 -11.000000
v 13.000000 4.000000 11.000000
v -12.000000 4.000000 11.000000
v -12.000000 4.000000 -11.000000
vt 0.498999 0.001001
vt 0.001001 0.001001
vt 0.001001 0.498999
vt 0.498999 0.498999
vt 0.780249 0.501001
vt 0.751001 0.501001
vt 0.751001 0.530249
vt 0.780249 0.530249
vt 0.780249 0.438501
vt 0.766626 0.438501
vt 0.766626 0.467749
vt 0.780249 0.467749
vt 0.764624 0.438501
vt 0.751001 0.438501
vt 0.751001 0.467749
vt 0.764624 0.467749
vt 0.811499 0.438501
vt 0.797876 0.438501
vt 0.797876 0.467749
vt 0.811499 0.467749
vt 0.795874 0.438501
vt 0.782251 0.438501
vt 0.782251 0.467749
vt 0.795874 0.467749
vt 0.780249 0.469751
vt 0.766626 0.469751
vt 0.766626 0.498999
vt 0.780249 0.498999
vt 0.764624 0.469751
vt 0.751001 0.469751
vt 0.751001 0.498999
vt 0.764624 0.498999
vt 0.811499 0.469751
vt 0.797876 0.469751
vt 0.797876 0.498999
vt 0.811499 0.498999
vt 0.795874 0.469751
vt 0.782251 0.469751
vt 0.782251 0.498999
vt 0.795874 0.498999
vt 0.780249 0.532251
vt 0.751001 0.532251
vt 0.751001 0.561499
vt 0.780249 0.561499
vt 0.780249 0.563501
vt 0.751001 0.563501
vt 0.751001 0.592749
vt 0.780249 0.592749
vt 0.780249 0.251001
vt 0.766626 0.251001
vt 0.766626 0.280249
vt 0.780249 0.280249
vt 0.764624 0.251001
vt 0.751001 0.251001
vt 0.751001 0.280249
vt 0.764624 0.280249
vt 0.811499 0.251001
vt 0.797876 0.251001
vt 0.797876 0.280249
vt 0.811499 0.280249
vt 0.795874 0.251001
vt 0.782251 0.251001
vt 0.782251 0.280249
vt 0.795874 0.280249
vt 0.811499 0.157251
vt 0.782251 0.157251
vt 0.782251 0.186499
vt 0.811499 0.186499
vt 0.780249 0.282251
vt 0.766626 0.282251
vt 0.766626 0.311499
vt 0.780249 0.311499
vt 0.764624 0.282251
vt 0.751001 0.282251
vt 0.751001 0.311499
vt 0.764624 0.311499
vt 0.811499 0.282251
vt 0.797876 0.282251
vt 0.797876 0.311499
vt 0.811499 0.311499
vt 0.795874 0.282251
vt 0.782251 0.282251
vt 0.782251 0.311499
vt 0.795874 0.311499
vt 0.780249 0.313501
vt 0.766626 0.313501
vt 0.766626 0.342749
vt 0.780249 0.342749
vt 0.764624 0.313501
vt 0.751001 0.313501
vt 0.751001 0.342749
vt 0.764624 0.342749
vt 0.811499 0.313501
vt 0.797876 0.313501
vt 0.797876 0.342749
vt 0.811499 0.342749
vt 0.795874 0.313501
vt 0.782251 0.313501
vt 0.782251 0.342749
vt 0.795874 0.342749
vt 0.780249 0.157251
vt 0.751001 0.157251
vt 0.751001 0.186499
vt 0.780249 0.186499
vt 0.811499 0.126001
vt 0.782251 0.126001
vt 0.782251 0.155249
vt 0.811499 0.155249
vt 0.780249 0.344751
vt 0.766626 0.344751
vt 0.766626 0.373999
vt 0.780249 0.373999
vt 0.764624 0.344751
vt 0.751001 0.344751
vt 0.751001 0.373999
vt 0.764624 0.373999
vt 0.811499 0.344751
vt 0.797876 0.344751
vt 0.797876 0.373999
vt 0.811499 0.373999
vt 0.795874 0.344751
vt 0.782251 0.344751
vt 0.782251 0.373999
vt 0.795874 0.373999
vt 0.780249 0.126001
vt 0.751001 0.126001
vt 0.751001 0.155249
vt 0.780249 0.155249
vt 0.780249 0.188501
vt 0.766626 0.188501
vt 0.766626 0.217749
vt 0.780249 0.217749
vt 0.764624 0.188501
vt 0.751001 0.188501
vt 0.751001 0.217749
vt 0.764624 0.217749
vt 0.811499 0.188501
vt 0.797876 0.188501
vt 0.797876 0.217749
vt 0.811499 0.217749
vt 0.795874 0.188501
vt 0.782251 0.188501
vt 0.782251 0.217749
vt 0.795874 0.217749
vt 0.780249 0.219751
vt 0.766626 0.219751
vt 0.766626 0.248999
vt 0.780249 0.248999
vt 0.764624 0.219751
vt 0.751001 0.219751
vt 0.751001 0.248999
vt 0.764624 0.248999
vt 0.811499 0.219751
vt 0.797876 0.219751
vt 0.797876 0.248999
vt 0.811499 0.248999
vt 0.795874 0.219751
vt 0.782251 0.219751
vt 0.782251 0.248999
vt 0.795874 0.248999
vt 0.811499 0.407251
vt 0.782251 0.407251
vt 0.782251 0.436499
vt 0.811499 0.436499
vt 0.780249 0.407251
vt 0.751001 0.407251
vt 0.751001 0.436499
vt 0.780249 0.436499
vt 0.780249 0.376001
vt 0.766626 0.376001
vt 0.766626 0.405249
vt 0.780249 0.405249
vt 0.764624 0.376001
vt 0.751001 0.376001
vt 0.751001 0.405249
vt 0.764624 0.405249
vt 0.811499 0.376001
vt 0.797876 0.376001
vt 0.797876 0.405249
vt 0.811499 0.405249
vt 0.795874 0.376001
vt 0.782251 0.376001
vt 0.782251 0.405249
vt 0.795874 0.405249
vt 0.501001 0.811499
vt 0.623999 0.811499
vt 0.623999 0.751001
vt 0.501001 0.751001
vt 0.623999 0.126001
vt 0.501001 0.126001
vt 0.501001 0.623999
vt 0.623999 0.623999
vt 0.998999 0.748999
vt 0.998999 0.626001
vt 0.501001 0.626001
vt 0.501001 0.748999
vt 0.748999 0.126001
vt 0.626001 0.126001
vt 0.626001 0.623999
vt 0.748999 0.623999
vt 0.998999 0.123999
vt 0.998999 0.001001
vt 0.501001 0.001001
vt 0.501001 0.123999
vt 0.498999 0.501001
vt 0.001001 0.501001
vt 0.001001 0.998999
vt 0.498999 0.998999
vn -0.0000 1.0000 0.0000
vn 0.0000 -1.0000 0.0000
vn 0.0000 0.0000 -1.0000
vn -1.0000 0.0000 0.0000
vn 0.0000 0.0000 1.0000
vn 1.0000 0.0000 0.0000
usemtl Material.001
s 1
f 1/1/1 2/2/1 3/3/1 4/4/1
usemtl Material_light.png
f 5/5/2 6/6/2 7/7/2 8/8/2
f 5/9/3 9/10/3 10/11/3 6/12/3
f 8/13/4 11/14/4 9/15/4 5/16/4
f 7/17/5 12/18/5 11/19/5 8/20/5
f 6/21/6 10/22/6 12/23/6 7/24/6
f 13/25/4 14/26/4 15/27/4 16/28/4
f 16/29/3 15/30/3 17/31/3 18/32/3
f 18/33/6 17/34/6 19/35/6 20/36/6
f 20/37/5 19/38/5 14/39/5 13/40/5
f 16/41/2 18/42/2 20/43/2 13/44/2
f 21/45/2 22/46/2 23/47/2 24/48/2
f 21/49/3 25/50/3 26/51/3 22/52/3
f 24/53/4 27/54/4 25/55/4 21/56/4
f 23/57/5 28/58/5 27/59/5 24/60/5
f 22/61/6 26/62/6 28/63/6 23/64/6
f 29/65/2 30/66/2 31/67/2 32/68/2
f 29/69/3 33/70/3 34/71/3 30/72/3
f 32/73/4 35/74/4 33/75/4 29/76/4
f 31/77/5 36/78/5 35/79/5 32/80/5
f 30/81/6 34/82/6 36/83/6 31/84/6
f 37/85/4 38/86/4 39/87/4 40/88/4
f 40/89/3 39/90/3 41/91/3 42/92/3
f 42/93/6 41/94/6 43/95/6 44/96/6
f 44/97/5 43/98/5 38/99/5 37/100/5
f 40/101/2 42/102/2 44/103/2 37/104/2
f 45/105/2 46/106/2 47/107/2 48/108/2
f 45/109/3 49/110/3 50/111/3 46/112/3
f 48/113/4 51/114/4 49/115/4 45/116/4
f 47/117/5 52/118/5 51/119/5 48/120/5
f 46/121/6 50/122/6 52/123/6 47/124/6
f 53/125/2 54/126/2 55/127/2 56/128/2
f 53/129/3 57/130/3 58/131/3 54/132/3
f 56/133/4 59/134/4 57/135/4 53/136/4
f 55/137/5 60/138/5 59/139/5 56/140/5
f 54/141/6 58/142/6 60/143/6 55/144/6
f 61/145/4 62/146/4 63/147/4 64/148/4
f 64/149/3 63/150/3 65/151/3 66/152/3
f 66/153/6 65/154/6 67/155/6 68/156/6
f 68/157/5 67/158/5 62/159/5 61/160/5
f 64/161/2 66/162/2 68/163/2 61/164/2
f 69/165/2 70/166/2 71/167/2 72/168/2
f 69/169/3 73/170/3 74/171/3 70/172/3
f 72/173/4 75/174/4 73/175/4 69/176/4
f 71/177/5 76/178/5 75/179/5 72/180/5
f 70/181/6 74/182/6 76/183/6 71/184/6
usemtl Material_door.png
f 77/185/3 78/186/3 79/187/3 80/188/3
usemtl Material_insulation.png
f 81/189/4 82/190/4 83/191/4 84/192/4
f 85/193/3 86/194/3 87/195/3 88/196/3
f 89/197/6 90/198/6 91/199/6 92/200/6
f 93/201/5 94/202/5 95/203/5 96/204/5
usemtl Material_ceiling_blue.png
f 97/205/2 98/206/2 99/207/2 100/208/2
