# Blender v2.79 (sub 0) OBJ File: 'BlackKey.blend'
# www.blender.org
mtllib BlackKey.mtl
o Cube_Cube.001
v -0.450000 -1.250000 0.500000
v -0.450000 1.250000 0.500000
v -0.450000 -1.250000 -0.500000
v -0.450000 1.250000 -0.500000
v 0.450000 -1.250000 0.500000
v 0.450000 1.250000 0.500000
v 0.450000 -1.250000 -0.500000
v 0.450000 1.250000 -0.500000
vt 0.988333 0.538834
vt 0.988333 0.544833
vt 0.982370 0.544833
vt 0.982370 0.538834
vt 0.998531 0.000042
vt 0.998531 0.999958
vt 0.000042 0.999958
vt 0.000042 0.000042
vt 1.001881 0.557501
vt 1.001881 0.567499
vt 0.991944 0.567499
vt 0.991944 0.557501
vt 0.998531 0.000042
vt 0.998531 0.999957
vt 0.000042 0.999958
vt 0.000042 0.000043
vt 0.000000 0.000000
vt 0.000000 0.000000
vt 0.000000 0.000000
vt 0.000000 0.000000
vt 0.000000 0.000000
vt 0.000000 0.000000
vn -1.0000 0.0000 0.0000
vn 0.0000 0.0000 -1.0000
vn 1.0000 0.0000 0.0000
vn 0.0000 0.0000 1.0000
vn 0.0000 -1.0000 0.0000
vn 0.0000 1.0000 0.0000
usemtl None
s off
f 1/1/1 2/2/1 4/3/1 3/4/1
f 3/5/2 4/6/2 8/7/2 7/8/2
f 7/9/3 8/10/3 6/11/3 5/12/3
f 5/13/4 6/14/4 2/15/4 1/16/4
usemtl None_NONE
f 3/17/5 7/8/5 5/18/5 1/16/5
f 8/19/6 4/20/6 2/21/6 6/22/6
