# Blender v2.79 (sub 0) OBJ File: 'WhiteKey.blend'
# www.blender.org
mtllib WhiteKey.mtl
o Cube_Cube.001
v -0.500000 -2.000000 0.250000
v -0.500000 2.000000 0.250000
v -0.500000 -2.000000 -0.250000
v -0.500000 2.000000 -0.250000
v 0.500000 -2.000000 0.250000
v 0.500000 2.000000 0.250000
v 0.500000 -2.000000 -0.250000
v 0.500000 2.000000 -0.250000
vt 0.000000 0.000000
vt 0.000000 0.000000
vt 0.000000 0.000000
vt 0.000000 0.000000
vt 0.000000 0.000000
vt 0.000000 0.000000
vt 0.000000 0.000000
vt 0.000000 0.000000
vt 1.000000 0.000071
vt 1.000000 0.999929
vt 0.000071 0.999929
vt 0.000071 0.000071
vn -1.0000 0.0000 0.0000
vn 0.0000 0.0000 -1.0000
vn 1.0000 0.0000 0.0000
vn 0.0000 -1.0000 0.0000
vn 0.0000 1.0000 0.0000
vn 0.0000 0.0000 1.0000
usemtl None
s off
f 1/1/1 2/2/1 4/3/1 3/4/1
f 3/4/2 4/3/2 8/5/2 7/6/2
f 7/6/3 8/5/3 6/7/3 5/8/3
f 3/4/4 7/6/4 5/8/4 1/1/4
f 8/5/5 4/3/5 2/2/5 6/7/5
usemtl None_WhiteKey.png
f 5/9/6 6/10/6 2/11/6 1/12/6
