# Blender v2.79 (sub 0) OBJ File: 'IntervalSlice.blend'
# www.blender.org
mtllib IntervalSlice.mtl
o Cube
v -0.050000 -0.250000 0.050000
v -0.250000 0.250000 0.050000
v -0.050000 -0.250000 -0.050000
v -0.250000 0.250000 -0.050000
v 0.050000 -0.250000 0.050000
v 0.250000 0.250000 0.050000
v 0.050000 -0.250000 -0.050000
v 0.250000 0.250000 -0.050000
vt 0.624900 0.000100
vt 0.999900 0.999900
vt 0.000100 0.999900
vt 0.375100 0.000100
vt 0.000000 0.000000
vt 0.000000 0.000000
vt 0.000000 0.000000
vt 0.000000 0.000000
vt 0.000000 0.000000
vt 0.000000 0.000000
vt 0.000000 0.000000
vt 0.000000 0.000000
vn 0.0000 0.0000 1.0000
vn -0.9285 -0.3714 0.0000
vn 0.0000 0.0000 -1.0000
vn 0.9285 -0.3714 0.0000
vn 0.0000 -1.0000 0.0000
vn 0.0000 1.0000 0.0000
usemtl None
s off
f 5/1/1 6/2/1 2/3/1 1/4/1
usemtl None_NONE
f 1/5/2 2/6/2 4/7/2 3/8/2
f 3/8/3 4/7/3 8/9/3 7/10/3
f 7/10/4 8/9/4 6/11/4 5/12/4
f 3/8/5 7/10/5 5/12/5 1/5/5
f 8/9/6 4/7/6 2/6/6 6/11/6
