# Blender v2.79 (sub 0) OBJ File: 'MusicRoom.blend'
# www.blender.org
mtllib MusicRoom.mtl
o Cube
v 13.000000 -4.000000 -11.000000
v 13.000000 -4.000000 11.000000
v -12.000000 -4.000000 11.000000
v -12.000000 -4.000000 -11.000000
v 13.000000 -3.000000 -10.999999
v 13.000000 -3.000000 11.000001
v -12.000000 -3.000000 11.000000
v -12.000000 -3.000000 -11.000000
v 13.000000 -4.000000 11.000000
v 13.000000 4.000000 11.000000
v 13.000000 -4.000000 -11.000000
v 13.000000 4.000000 -11.000000
v 14.000000 -4.000000 11.000000
v 14.000000 4.000000 11.000000
v 14.000000 -4.000000 -11.000000
v 14.000000 4.000000 -11.000000
v -12.000000 -4.000000 12.000000
v -12.000000 4.000000 12.000000
v -12.000000 -4.000000 11.000000
v -12.000000 4.000000 11.000000
v 14.000000 -4.000000 12.000000
v 14.000000 4.000000 12.000000
v 14.000000 -4.000000 11.000000
v 14.000000 4.000000 11.000000
v -13.000000 -4.000000 11.000000
v -13.000000 4.000000 11.000000
v -13.000000 -4.000000 -11.000000
v -13.000000 4.000000 -11.000000
v -12.000000 -4.000000 11.000000
v -12.000000 4.000000 11.000000
v -12.000000 -4.000000 -11.000000
v -12.000000 4.000000 -11.000000
v -12.000000 -4.000000 -11.000000
v -12.000000 4.000000 -11.000000
v -12.000000 -4.000000 -12.000000
v -12.000000 4.000000 -12.000000
v 14.000000 -4.000000 -11.000000
v 14.000000 4.000000 -11.000000
v 14.000000 -4.000000 -12.000000
v 14.000000 4.000000 -12.000000
v 13.000000 4.000000 -11.000000
v 13.000000 4.000000 11.000000
v -12.000000 4.000000 11.000000
v -12.000000 4.000000 -11.000000
v 13.000000 5.000000 -10.999999
v 13.000000 5.000000 11.000001
v -12.000000 5.000000 11.000000
v -12.000000 5.000000 -11.000000
v 7.000000 -3.000000 12.000000
v 7.000000 2.000000 12.000000
v 7.000000 -3.000000 10.970000
v 7.000000 2.000000 10.970000
v 10.000000 -3.000000 12.000000
v 10.000000 2.000000 12.000000
v 10.000000 -3.000000 10.970000
v 10.000000 2.000000 10.970000
vt 3.965386 -5.979023
vt 3.965386 6.979023
vt -3.397140 6.979023
vt -3.397139 -5.979022
vt 0.000000 0.000000
vt 0.000000 0.000000
vt 0.000000 0.000000
vt 0.000000 0.000000
vt 0.000000 0.000000
vt 0.000000 0.000000
vt 0.000000 0.000000
vt 0.000000 0.000000
vt 0.000000 0.000000
vt 0.000000 0.000000
vt 0.000000 0.000000
vt 0.000000 0.000000
vt 0.000000 0.000000
vt 0.000000 0.000000
vt 0.000000 0.000000
vt 0.000000 0.000000
vt 0.000000 0.000000
vt 0.000000 0.000000
vt 0.000000 0.000000
vt 0.000000 0.000000
vt 0.000000 0.000000
vt 0.000000 0.000000
vt 0.000000 0.000000
vt 0.000000 0.000000
vt 0.000000 0.000000
vt 0.000000 0.000000
vt 0.000000 0.000000
vt 0.000000 0.000000
vt 0.000000 0.000000
vt 0.000000 0.000000
vt 0.000000 0.000000
vt 0.000000 0.000000
vt 0.000000 0.000000
vt 0.000000 0.000000
vt 0.000000 0.000000
vt 0.000000 0.000000
vt 0.000000 0.000000
vt 0.000000 0.000000
vt 0.000000 0.000000
vt 0.000000 0.000000
vt 5.609042 4.935967
vt -4.609041 4.935969
vt -4.609042 -4.055945
vt 5.609041 -4.055946
vt 0.000000 0.000000
vt 0.000000 0.000000
vt 0.000000 0.000000
vt 0.000000 0.000000
vt 0.000000 0.000000
vt 0.000000 0.000000
vt 0.000000 0.000000
vt 0.000000 0.000000
vt 0.000000 0.000000
vt 0.000000 0.000000
vt 0.000000 0.000000
vt 0.000000 0.000000
vt 0.000000 0.000000
vt 0.000000 0.000000
vt 0.000000 0.000000
vt 0.000000 0.000000
vt 0.095078 1.091941
vt 0.095078 4.291941
vt 8.895079 4.291941
vt 8.895079 1.091941
vt 0.495078 1.091941
vt 0.495078 4.291941
vt 10.895079 4.291941
vt 10.895079 1.091941
vt 0.095078 1.091941
vt 0.095078 4.291941
vt -8.704922 4.291941
vt -8.704922 1.091941
vt 0.495078 1.091941
vt 0.495078 4.291941
vt -9.904922 4.291941
vt -9.904922 1.091941
vt 0.999908 0.000091
vt 1.015534 0.997335
vt 0.015716 0.997335
vt 0.000091 0.000091
vt 5.609042 4.935967
vt -4.609041 4.935969
vt -4.609042 -4.055945
vt 5.609041 -4.055946
vn 0.0000 -1.0000 0.0000
vn 1.0000 0.0000 0.0000
vn 0.0000 -0.0000 1.0000
vn -1.0000 0.0000 0.0000
vn 0.0000 0.0000 -1.0000
vn 0.0000 1.0000 0.0000
usemtl Material
s off
f 41/1/1 42/2/1 43/3/1 44/4/1
usemtl Material_NONE
f 1/5/1 2/6/1 3/7/1 4/8/1
f 1/5/2 5/9/2 6/10/2 2/6/2
f 2/6/3 6/10/3 7/11/3 3/7/3
f 3/7/4 7/11/4 8/12/4 4/8/4
f 5/9/5 1/5/5 4/8/5 8/12/5
f 11/13/5 12/14/5 16/15/5 15/16/5
f 15/16/2 16/15/2 14/17/2 13/18/2
f 13/18/3 14/17/3 10/19/3 9/20/3
f 11/13/1 15/16/1 13/18/1 9/20/1
f 16/15/6 12/14/6 10/19/6 14/17/6
f 17/21/4 18/22/4 20/23/4 19/24/4
f 23/25/2 24/26/2 22/27/2 21/28/2
f 21/28/3 22/27/3 18/22/3 17/21/3
f 19/24/1 23/25/1 21/28/1 17/21/1
f 24/26/6 20/23/6 18/22/6 22/27/6
f 25/29/4 26/30/4 28/31/4 27/32/4
f 27/32/5 28/31/5 32/33/5 31/34/5
f 29/35/3 30/36/3 26/30/3 25/29/3
f 27/32/1 31/34/1 29/35/1 25/29/1
f 32/33/6 28/31/6 26/30/6 30/36/6
f 33/37/4 34/38/4 36/39/4 35/40/4
f 35/40/5 36/39/5 40/41/5 39/42/5
f 39/42/2 40/41/2 38/43/2 37/44/2
f 35/40/1 39/42/1 37/44/1 33/37/1
f 40/41/6 36/39/6 34/38/6 38/43/6
f 45/45/6 48/46/6 47/47/6 46/48/6
f 41/49/2 45/50/2 46/51/2 42/52/2
f 42/52/3 46/51/3 47/53/3 43/54/3
f 43/54/4 47/53/4 48/55/4 44/56/4
f 45/50/5 41/49/5 44/56/5 48/55/5
f 49/57/4 50/58/4 52/59/4 51/60/4
f 55/61/2 56/62/2 54/63/2 53/64/2
f 53/64/3 54/63/3 50/58/3 49/57/3
f 51/60/1 55/61/1 53/64/1 49/57/1
f 56/62/6 52/59/6 50/58/6 54/63/6
usemtl Material_insulation.png
f 9/65/4 10/66/4 12/67/4 11/68/4
f 19/69/5 20/70/5 24/71/5 23/72/5
f 31/73/2 32/74/2 30/75/2 29/76/2
f 37/77/3 38/78/3 34/79/3 33/80/3
usemtl Material_door.png
f 51/81/5 52/82/5 56/83/5 55/84/5
usemtl Material_wood1.png
f 5/85/6 8/86/6 7/87/6 6/88/6
